<svg width="1417" height="379" viewBox="0 0 1417 379" fill="none" xmlns="http://www.w3.org/2000/svg">
<g clip-path="url(#clip0_7214_79978)">
<path d="M229.224 146.861C253.163 106.914 258.671 68.4723 239.597 49.3988C220.513 30.3144 182.066 35.8196 142.13 59.7582C102.193 35.8251 63.7462 30.3199 44.6646 49.4015C25.591 68.4751 31.099 106.927 55.0321 146.858C31.0963 186.801 25.5829 225.245 44.6646 244.329C63.7462 263.402 102.193 257.895 142.13 233.961C182.077 257.903 220.513 263.402 239.595 244.329C258.668 225.245 253.174 186.809 229.224 146.861ZM207.585 56.0345C216.176 56.0345 222.624 58.1265 226.748 62.2453C237.573 73.0705 234.365 99.5342 218.031 129.861C210.211 119.095 201.121 108.404 190.851 98.1314C180.56 87.84 169.838 78.7391 159.054 70.8994C176.624 61.4008 193.551 56.0345 207.585 56.0345ZM207.737 146.861C199.696 158.787 189.789 170.971 178.008 182.755C166.569 194.202 154.358 204.123 142.13 212.39C129.904 204.12 117.693 194.196 106.246 182.739C94.4785 170.974 84.5822 158.817 76.5518 146.902C84.8955 134.532 94.9225 122.296 106.235 110.972C117.693 99.526 129.893 89.6079 142.13 81.3297C154.35 89.6079 166.559 99.526 178.008 110.972C189.789 122.756 199.696 134.933 207.737 146.861ZM57.5192 62.2453C61.6351 58.1265 68.072 56.0345 76.6717 56.0345C90.7085 56.0345 107.635 61.4035 125.208 70.8994C114.41 78.7364 103.691 87.84 93.3944 98.1314C83.1248 108.401 74.0457 119.093 66.2251 129.861C49.8974 99.5342 46.6858 73.0705 57.5192 62.2453ZM76.6744 237.68C68.0747 237.68 61.6351 235.593 57.5137 231.483C49.8456 223.812 49.2763 207.206 55.9801 187.068C58.4916 179.566 62.0301 171.78 66.2578 163.916C74.0675 174.66 83.1466 185.327 93.3998 195.586C103.702 205.88 114.416 214.989 125.214 222.826C107.638 232.322 90.7194 237.68 76.6744 237.68ZM226.748 231.48C222.624 235.593 216.187 237.685 207.585 237.685C193.551 237.685 176.624 232.319 159.057 222.823C169.841 214.994 180.563 205.888 190.854 195.605C201.124 185.327 210.211 174.632 218.034 163.87C234.365 194.196 237.573 220.655 226.748 231.48Z" fill="#128780"/>
<path d="M176.89 122.455C167.657 114.587 153.927 116.003 145.452 124.746L142.133 128.166L138.814 124.746C130.357 116.003 116.61 114.587 107.377 122.455C96.797 131.485 96.241 147.692 105.709 157.481L138.309 191.142C140.415 193.315 143.835 193.315 145.941 191.142L178.541 157.481C188.026 147.692 187.47 131.485 176.89 122.455Z" fill="#128780"/>
<path d="M343.943 215.54C336.363 215.54 332.573 213.519 332.573 209.476V90.0913C332.573 87.4383 333.141 85.5433 334.278 84.4063C335.542 83.143 337.5 82.5113 340.153 82.5113H372.936C382.917 82.5113 391.697 85.417 399.277 91.2283C406.983 96.9133 410.836 107.841 410.836 124.012C410.836 135.129 408.626 143.783 404.204 149.973C399.782 156.037 394.855 160.143 389.423 162.291C383.991 164.438 379.127 165.512 374.831 165.512H361.756V209.476C361.756 213.519 357.966 215.54 350.386 215.54H343.943ZM371.61 141.067C374.516 141.067 377.042 139.803 379.19 137.277C381.338 134.75 382.411 130.328 382.411 124.012C382.411 117.821 381.338 113.526 379.19 111.126C377.042 108.599 374.516 107.336 371.61 107.336H361.566V141.067H371.61ZM444.268 216.677C437.699 216.677 431.572 215.54 425.887 213.266C420.328 210.992 417.549 208.023 417.549 204.36C417.549 201.707 418.749 198.422 421.149 194.506C423.676 190.589 425.887 188.631 427.782 188.631C428.287 188.631 429.361 189.137 431.003 190.147C432.772 191.158 434.414 192.042 435.93 192.8C437.446 193.432 439.215 193.748 441.236 193.748C444.268 193.748 446.606 193.116 448.248 191.853C449.89 190.589 450.711 188.884 450.711 186.736C450.711 184.21 449.89 182.188 448.248 180.672C446.606 179.156 444.016 177.451 440.478 175.556L436.688 173.282C431.256 169.997 426.898 166.397 423.613 162.48C420.455 158.438 418.875 152.626 418.875 145.046C418.875 135.571 421.718 128.118 427.403 122.685C433.214 117.253 440.794 114.537 450.143 114.537C455.954 114.537 461.513 115.484 466.819 117.379C472.125 119.148 474.778 121.864 474.778 125.528C474.778 128.054 473.83 131.276 471.935 135.192C470.167 138.982 468.524 140.877 467.008 140.877C466.629 140.877 465.177 140.309 462.65 139.172C460.123 138.035 457.533 137.466 454.88 137.466C448.564 137.466 445.405 139.614 445.405 143.909C445.405 146.057 446.163 147.826 447.679 149.215C449.195 150.479 451.722 152.121 455.259 154.142C456.902 154.9 458.923 156.037 461.323 157.553C466.25 160.712 470.104 164.312 472.883 168.355C475.789 172.397 477.241 177.83 477.241 184.652C477.241 194.127 474.273 201.833 468.335 207.771C462.524 213.708 454.501 216.677 444.268 216.677ZM545.942 115.674C553.27 115.674 556.933 117.063 556.933 119.843C556.933 120.348 556.807 121.485 556.554 123.254L524.339 250.219C523.708 252.872 520.234 254.198 513.917 254.198H510.127C503.052 254.198 499.515 252.872 499.515 250.219C499.515 249.334 499.704 248.197 500.083 246.808L508.232 217.246L482.27 124.201C481.765 122.685 481.512 121.296 481.512 120.032C481.512 117.127 484.671 115.674 490.987 115.674H499.136C502.042 115.674 504.252 115.99 505.768 116.621C507.411 117.127 508.421 118.264 508.8 120.032L515.812 158.501C516.57 163.049 517.581 170.123 518.844 179.725H519.602C520.234 175.303 520.676 172.461 520.928 171.197C521.686 165.133 522.318 160.901 522.823 158.501L530.403 119.653C530.909 117 534.257 115.674 540.447 115.674H545.942ZM602.496 216.677C575.714 216.677 562.322 199.749 562.322 165.891C562.322 131.655 575.966 114.537 603.254 114.537C607.802 114.537 612.161 115.168 616.33 116.432C620.625 117.569 624.099 119.148 626.752 121.169C629.405 123.191 630.732 125.338 630.732 127.612C630.732 129.886 629.721 132.855 627.7 136.519C625.805 140.182 623.973 142.014 622.204 142.014C621.446 142.014 620.246 141.509 618.604 140.498C616.33 139.361 614.309 138.477 612.54 137.845C610.771 137.087 608.687 136.708 606.286 136.708C601.107 136.708 597.254 138.919 594.727 143.341C592.2 147.762 590.937 155.153 590.937 165.512C590.937 175.872 592.137 183.325 594.537 187.873C596.938 192.295 600.665 194.506 605.718 194.506C607.992 194.506 610.076 194.19 611.971 193.558C613.866 192.927 615.446 192.295 616.709 191.663C617.972 191.032 618.793 190.653 619.172 190.526C620.941 189.642 622.078 189.2 622.583 189.2C624.478 189.2 626.31 191.032 628.079 194.695C629.974 198.233 630.921 201.201 630.921 203.602C630.921 206.002 629.342 208.213 626.184 210.234C623.026 212.256 619.172 213.835 614.624 214.972C610.203 216.109 606.16 216.677 602.496 216.677ZM653.889 215.54C646.562 215.54 642.898 213.519 642.898 209.476V78.3423C642.898 74.2996 646.562 72.2783 653.889 72.2783H660.332C667.66 72.2783 671.323 74.2996 671.323 78.3423V127.423C674.103 123.633 677.451 120.538 681.367 118.137C685.41 115.737 689.958 114.537 695.011 114.537C701.959 114.537 707.265 116.811 710.929 121.359C714.593 125.78 716.424 132.287 716.424 140.877V209.476C716.424 213.519 712.761 215.54 705.433 215.54H698.99C691.663 215.54 687.999 213.519 687.999 209.476V147.32C687.999 144.036 687.431 141.635 686.294 140.119C685.157 138.477 683.262 137.656 680.609 137.656C677.072 137.656 673.976 139.677 671.323 143.72V209.476C671.323 213.519 667.66 215.54 660.332 215.54H653.889ZM770.309 216.677C757.676 216.677 748.074 212.319 741.505 203.602C734.936 194.758 731.651 182.062 731.651 165.512C731.651 148.963 734.873 136.329 741.316 127.612C747.885 118.895 757.549 114.537 770.309 114.537C783.069 114.537 792.733 118.895 799.303 127.612C805.872 136.329 809.157 148.963 809.157 165.512C809.157 182.062 805.872 194.758 799.303 203.602C792.733 212.319 783.069 216.677 770.309 216.677ZM770.499 194.506C774.162 194.506 776.752 192.358 778.268 188.063C779.91 183.641 780.732 176.124 780.732 165.512C780.732 154.9 779.91 147.447 778.268 143.151C776.752 138.856 774.162 136.708 770.499 136.708C766.709 136.708 763.992 138.856 762.35 143.151C760.834 147.447 760.076 154.9 760.076 165.512C760.076 176.124 760.834 183.641 762.35 188.063C763.992 192.358 766.709 194.506 770.499 194.506ZM921.637 114.537C928.585 114.537 933.828 116.811 937.365 121.359C940.902 125.78 942.671 132.287 942.671 140.877V209.476C942.671 213.519 939.007 215.54 931.68 215.54H925.237C917.91 215.54 914.246 213.519 914.246 209.476V147.32C914.246 144.036 913.741 141.635 912.73 140.119C911.719 138.477 909.888 137.656 907.235 137.656C903.95 137.656 900.855 139.361 897.949 142.772V209.476C897.949 213.519 894.285 215.54 886.958 215.54H880.515C873.188 215.54 869.524 213.519 869.524 209.476V147.32C869.524 144.036 869.019 141.635 868.008 140.119C866.997 138.477 865.166 137.656 862.513 137.656C859.228 137.656 856.133 139.677 853.227 143.72V209.476C853.227 211.498 852.343 213.014 850.574 214.024C848.805 215.035 846.089 215.54 842.426 215.54H835.793C828.592 215.54 824.992 213.519 824.992 209.476V149.026C824.992 140.056 824.676 133.676 824.044 129.886C823.412 126.096 823.097 123.759 823.097 122.875C823.097 120.601 825.75 118.958 831.056 117.948C836.362 116.811 840.973 116.242 844.889 116.242C847.289 116.242 848.869 116.937 849.627 118.327C850.385 119.716 850.89 121.548 851.143 123.822C851.522 125.97 851.837 127.675 852.09 128.939C854.996 124.77 858.47 121.359 862.513 118.706C866.682 115.926 871.482 114.537 876.915 114.537C886.895 114.537 893.275 118.958 896.054 127.802C898.833 124.012 902.371 120.853 906.666 118.327C911.088 115.8 916.078 114.537 921.637 114.537ZM1001.17 216.677C986.52 216.677 975.719 212.445 968.77 203.981C961.822 195.39 958.348 182.82 958.348 166.27C958.348 147.573 961.759 134.308 968.581 126.475C975.529 118.516 985.257 114.537 997.764 114.537C1010.14 114.537 1019.11 118.895 1024.67 127.612C1030.23 136.329 1033.01 148.963 1033.01 165.512C1033.01 167.028 1031.68 169.302 1029.03 172.334C1026.5 175.24 1024.61 176.693 1023.35 176.693H987.341C987.594 183.136 989.047 187.747 991.7 190.526C994.353 193.179 997.953 194.506 1002.5 194.506C1005.28 194.506 1007.81 194.127 1010.08 193.369C1012.36 192.611 1014.57 191.726 1016.71 190.716C1018.86 189.579 1020.19 189.01 1020.69 189.01C1021.96 189.01 1023.35 189.958 1024.86 191.853C1026.5 193.621 1027.83 195.706 1028.84 198.106C1029.98 200.38 1030.55 202.149 1030.55 203.412C1030.55 206.318 1028.84 208.781 1025.43 210.803C1022.02 212.698 1017.98 214.151 1013.3 215.161C1008.75 216.172 1004.71 216.677 1001.17 216.677ZM1007.43 159.827C1007.43 150.858 1006.67 144.478 1005.15 140.688C1003.64 136.771 1001.11 134.813 997.574 134.813C994.163 134.813 991.51 136.645 989.615 140.309C987.847 143.972 986.71 150.479 986.204 159.827H1007.43ZM1072.64 216.677C1065.06 216.677 1059.18 214.277 1055.01 209.476C1050.97 204.549 1048.95 197.096 1048.95 187.115V138.224H1046.86C1044.84 138.224 1043.39 137.466 1042.51 135.95C1041.62 134.434 1041.18 132.034 1041.18 128.749V125.528C1041.18 122.243 1041.62 119.843 1042.51 118.327C1043.39 116.811 1044.84 116.053 1046.86 116.053H1048.95L1051.41 98.0503C1052.04 94.0076 1055.45 91.9863 1061.64 91.9863H1067.52C1073.84 91.9863 1076.99 94.0076 1076.99 98.0503V116.053H1084.01C1086.03 116.053 1087.48 116.811 1088.36 118.327C1089.25 119.843 1089.69 122.243 1089.69 125.528V128.749C1089.69 132.034 1089.25 134.434 1088.36 135.95C1087.48 137.466 1086.03 138.224 1084.01 138.224H1076.99V187.873C1076.99 190.147 1077.31 191.853 1077.94 192.99C1078.7 194 1079.9 194.506 1081.54 194.506C1082.17 194.506 1082.99 194.379 1084.01 194.127C1085.14 193.874 1086.03 193.748 1086.66 193.748C1088.17 193.748 1089.5 195.58 1090.64 199.243C1091.78 202.781 1092.34 205.434 1092.34 207.202C1092.34 210.361 1090.2 212.761 1085.9 214.403C1081.61 215.919 1077.18 216.677 1072.64 216.677ZM1116.19 215.54C1108.61 215.54 1104.82 213.519 1104.82 209.476V149.026C1104.82 143.467 1104.63 139.235 1104.25 136.329C1104 133.297 1103.62 129.949 1103.12 126.286C1102.74 124.517 1102.55 123.191 1102.55 122.306C1102.55 120.285 1105.08 118.769 1110.13 117.758C1115.31 116.748 1119.86 116.242 1123.77 116.242C1126.05 116.242 1127.63 117.127 1128.51 118.895C1129.39 120.664 1130.03 122.622 1130.4 124.77C1130.91 126.791 1131.23 128.181 1131.35 128.939C1133.12 124.517 1135.21 121.043 1137.61 118.516C1140.01 115.863 1143.29 114.537 1147.46 114.537C1151 114.537 1153.33 115.358 1154.47 117C1155.73 118.516 1156.37 121.106 1156.37 124.77C1156.37 127.549 1155.86 131.086 1154.85 135.382C1153.97 139.677 1152.83 141.825 1151.44 141.825C1150.68 141.825 1149.35 141.572 1147.46 141.067C1145.56 140.561 1143.92 140.309 1142.53 140.309C1140.13 140.309 1138.11 141.193 1136.47 142.962C1134.83 144.73 1133.63 147.004 1132.87 149.784V209.476C1132.87 213.519 1129.08 215.54 1121.5 215.54H1116.19ZM1179.66 215.54C1172.08 215.54 1168.29 213.519 1168.29 209.476V121.738C1168.29 117.695 1172.08 115.674 1179.66 115.674H1184.96C1192.54 115.674 1196.33 117.695 1196.33 121.738V209.476C1196.33 213.519 1192.54 215.54 1184.96 215.54H1179.66ZM1182.5 106.388C1173.15 106.388 1168.48 104.367 1168.48 100.324V85.5433C1168.48 81.5006 1173.15 79.4793 1182.5 79.4793C1191.85 79.4793 1196.52 81.5006 1196.52 85.5433V100.324C1196.52 104.367 1191.85 106.388 1182.5 106.388ZM1252.98 216.677C1226.19 216.677 1212.8 199.749 1212.8 165.891C1212.8 131.655 1226.45 114.537 1253.74 114.537C1258.28 114.537 1262.64 115.168 1266.81 116.432C1271.11 117.569 1274.58 119.148 1277.23 121.169C1279.89 123.191 1281.21 125.338 1281.21 127.612C1281.21 129.886 1280.2 132.855 1278.18 136.519C1276.29 140.182 1274.45 142.014 1272.69 142.014C1271.93 142.014 1270.73 141.509 1269.08 140.498C1266.81 139.361 1264.79 138.477 1263.02 137.845C1261.25 137.087 1259.17 136.708 1256.77 136.708C1251.59 136.708 1247.73 138.919 1245.21 143.341C1242.68 147.762 1241.42 155.153 1241.42 165.512C1241.42 175.872 1242.62 183.325 1245.02 187.873C1247.42 192.295 1251.15 194.506 1256.2 194.506C1258.47 194.506 1260.56 194.19 1262.45 193.558C1264.35 192.927 1265.93 192.295 1267.19 191.663C1268.45 191.032 1269.27 190.653 1269.65 190.526C1271.42 189.642 1272.56 189.2 1273.06 189.2C1274.96 189.2 1276.79 191.032 1278.56 194.695C1280.45 198.233 1281.4 201.201 1281.4 203.602C1281.4 206.002 1279.82 208.213 1276.66 210.234C1273.51 212.256 1269.65 213.835 1265.11 214.972C1260.68 216.109 1256.64 216.677 1252.98 216.677ZM1316.88 216.677C1308.54 216.677 1302.1 214.024 1297.55 208.718C1293.13 203.412 1290.92 196.148 1290.92 186.926C1290.92 163.301 1305.63 151.552 1335.07 151.679V148.647C1335.07 144.604 1334.12 141.635 1332.23 139.74C1330.46 137.719 1327.55 136.708 1323.51 136.708C1320.73 136.708 1318.27 137.087 1316.12 137.845C1313.97 138.477 1311.57 139.424 1308.92 140.688C1307.15 141.698 1305.82 142.204 1304.94 142.204C1303.68 142.204 1302.29 141.256 1300.77 139.361C1299.25 137.466 1297.93 135.319 1296.79 132.918C1295.65 130.392 1295.08 128.433 1295.08 127.044C1295.08 124.896 1296.54 122.875 1299.44 120.98C1302.48 118.958 1306.33 117.379 1311 116.242C1315.8 115.105 1320.67 114.537 1325.59 114.537C1338.73 114.537 1348.27 117.442 1354.21 123.254C1360.15 129.065 1363.12 137.087 1363.12 147.32V181.809C1363.12 187.621 1363.24 192.042 1363.49 195.074C1363.87 198.106 1364.32 201.454 1364.82 205.118C1365.2 206.76 1365.39 208.15 1365.39 209.287C1365.39 211.308 1362.8 212.824 1357.62 213.835C1352.57 214.845 1348.08 215.351 1344.17 215.351C1342.14 215.351 1340.69 214.593 1339.81 213.077C1339.05 211.561 1338.23 209.097 1337.34 205.686C1335.7 208.466 1333.11 210.992 1329.57 213.266C1326.04 215.54 1321.8 216.677 1316.88 216.677ZM1325.4 196.401C1327.43 196.401 1329.26 195.832 1330.9 194.695C1332.67 193.558 1334.06 192.042 1335.07 190.147V167.976C1322.44 167.976 1316.12 173.598 1316.12 184.841C1316.12 188.379 1316.94 191.221 1318.58 193.369C1320.23 195.39 1322.5 196.401 1325.4 196.401Z" fill="#128780"/>
</g>
<defs>
<clipPath id="clip0_7214_79978">
<rect width="1416.51" height="379" fill="white"/>
</clipPath>
</defs>
</svg>
