<svg width="907" height="332" viewBox="0 0 907 332" fill="none" xmlns="http://www.w3.org/2000/svg">
<g clip-path="url(#clip0_7214_79987)">
<path d="M34.6832 7.14986C40.9303 3.91012 55.8847 -0.560718 66.6887 0.0656314C68.443 0.173623 69.8123 1.6855 69.6839 3.47816C69.4913 6.37232 68.6998 11.9231 68.6998 11.9231C68.6998 11.9231 66.0683 36.3507 61.6397 37.193C55.4141 38.3809 43.6259 36.0699 40.8875 65.0548C36.5231 111.21 70.6252 224.364 115.018 267.452C118.184 270.519 123.169 270.649 126.506 267.798C158.79 240.065 167.348 219.59 173.167 205.443C174.686 201.729 173.552 197.387 170.3 195.055C137.332 171.448 60.6556 39.3313 183.564 8.25137C294.386 -14.2108 259.107 100.001 250.956 135.681C249.736 141.016 245.222 141.361 240.301 139.05L213.923 126.847C210.499 125.228 208.895 119.59 209.451 115.811C211.847 99.4608 234.482 53.8237 193.834 51.8799C164.952 53.3917 160.395 79.8064 161.529 93.7805C163.154 113.824 176.954 152.096 209.023 168.51C241.542 185.141 286.042 201.556 286.042 201.556C286.042 201.556 325.471 254.018 311.287 249.72C245.821 229.85 239.403 222.506 223.742 217.474C219.891 216.329 215.762 218.057 213.858 221.621C202.027 243.824 166.62 315.119 122.078 326.545C120.024 327.063 117.863 326.869 115.981 325.875C12.1125 271.102 -38.8053 45.4436 34.6832 7.14986Z" fill="#7B6ECC"/>
<path d="M683.093 229.933C682.922 230.236 682.815 230.581 682.751 230.927C677.574 261.769 666.342 285.419 649.034 301.899C631.641 318.465 609.819 326.737 583.568 326.737C567.309 326.737 553.039 321.704 540.78 311.618C528.799 301.834 522.809 289.436 522.809 274.469C522.809 262.957 526.66 246.542 534.362 225.225C542.064 204.21 545.915 190.516 545.915 184.188C545.915 182.18 545.487 180.301 544.631 178.573C543.797 177.169 542.556 175.765 540.908 174.361C540.823 174.296 540.737 174.21 540.652 174.145C539.518 173.303 537.849 172.331 535.645 171.229C533.934 170.365 531.367 169.501 527.944 168.637C526.232 168.054 524.734 167.709 523.451 167.558C522.167 167.406 521.097 167.19 520.242 166.91C518.552 166.629 515.578 166.197 511.342 165.635C511.278 165.635 511.213 165.635 511.149 165.635C508.924 165.484 506.956 165.268 505.266 165.009C503.426 164.728 501.779 166.132 501.693 168.011C499.661 210.776 486.439 247.428 462.05 277.946C436.655 309.631 402.425 325.462 359.359 325.462C334.263 325.462 312.72 317.687 294.749 302.136C276.778 286.586 267.792 266.002 267.792 240.365C267.792 210.711 276.2 185.225 293.037 163.907C309.874 142.59 331.696 131.942 358.503 131.942C375.618 131.942 389.738 137.126 400.863 147.493C411.988 157.86 417.55 170.387 417.55 185.074C417.55 203.216 410.127 218.486 395.301 230.862C380.474 243.238 362.354 249.437 340.96 249.437C335.825 249.437 330.969 249.285 326.412 249.005C323.716 248.832 321.127 248.616 318.624 248.357C316.271 248.097 314.452 250.473 315.351 252.676C323.117 271.553 339.483 280.97 364.493 280.97C381.031 280.97 396.007 276.348 409.421 267.104C422.835 257.881 433.104 246.456 440.228 232.892C447.352 219.329 452.915 205.614 456.915 191.748C460.617 178.767 462.478 166.197 462.478 154.08V152.352C463.013 144.102 459.354 129.782 456.915 123.519C455.503 119.912 453.214 114.318 457.044 111.661C461.879 108.314 480.534 105.938 486.332 105.009C491.51 104.167 493.242 105.938 494.034 107.385C501.714 121.294 485.305 122.136 540.352 127.687C559.115 129.566 572.165 136.067 580.145 142.417C588.425 149.069 592.554 158.724 592.554 171.424C592.554 183.259 588.703 199.717 581.001 220.776C573.299 242.136 569.448 255.29 569.448 260.171C569.448 265.938 571.438 270.56 575.438 274.037C579.14 277.514 584.146 279.242 590.414 279.242C604.106 279.242 615.659 273.195 625.073 261.1C634.144 249.501 640.241 234.879 643.322 217.212C643.664 215.311 645.547 214.102 647.365 214.685L681.275 225.376C683.179 225.981 684.056 228.205 683.093 229.977V229.933ZM333.686 212.266C345.089 212.784 354.93 209.825 363.209 204.923C371.189 200.322 375.19 193.972 375.19 185.916C375.19 180.149 373.757 175.981 370.911 173.389C367.766 170.797 363.915 169.501 359.359 169.501C348.811 169.501 339.676 173.389 331.974 181.164C325.085 188.119 320.122 196.586 317.127 206.564C316.549 208.465 317.79 210.408 319.715 210.689C324.893 211.445 330.177 212.115 333.686 212.266Z" fill="#7B6ECC"/>
<path d="M906.616 226.09C902.059 253.153 892.774 276.198 878.803 295.205C865.111 313.628 847.14 322.851 824.891 322.851C802.641 322.851 786.809 315.226 776.882 299.935C775.791 298.25 773.481 298.034 772.047 299.438C766.463 304.924 758.826 309.978 749.134 314.643C738.009 320.108 726.029 322.851 713.192 322.851C692.376 322.851 674.833 315.226 660.563 299.956C646.593 284.989 639.597 265.55 639.597 241.641C639.597 210.54 648.86 184.039 667.409 162.16C685.658 140.561 709.042 129.762 737.581 129.762C753.563 129.762 767.683 133.801 779.942 141.857C786.574 146.371 792.115 151.231 796.586 156.414C802.405 163.175 801.122 173.542 793.869 178.704L781.974 187.149C775.92 191.447 767.597 190.691 762.57 185.227C761.093 183.607 759.468 182.116 757.713 180.756C752.001 176.436 745.027 174.276 736.747 174.276C723.911 174.276 712.358 179.892 702.089 191.123C691.82 202.354 686.685 216.458 686.685 233.455C686.685 246.998 689.68 257.797 695.671 265.853C701.661 274.211 709.641 278.38 719.632 278.38C733.324 278.38 744.299 271.188 752.579 256.782C759.831 244.168 763.233 229.762 762.826 213.607C762.719 209.827 765.693 206.674 769.437 206.674H802.855C806.513 206.674 809.487 209.676 809.487 213.369C809.487 216.393 809.337 220.065 809.059 224.384C808.481 233.239 808.053 239.978 807.775 244.579C807.775 244.643 807.775 244.708 807.775 244.773C807.775 267.17 813.359 278.358 824.463 278.358C844.145 278.358 857.495 257.689 864.512 216.328C864.833 214.427 866.737 213.218 868.577 213.801L906.188 225.658L906.616 226.09Z" fill="#7B6ECC"/>
</g>
<defs>
<clipPath id="clip0_7214_79987">
<rect width="906.615" height="326.803" fill="white"/>
</clipPath>
</defs>
</svg>
