<?xml version="1.0" encoding="utf-8"?>
<!-- Generator: Adobe Illustrator 19.2.0, SVG Export Plug-In . SVG Version: 6.00 Build 0)  -->
<svg version="1.1" id="Layer_1" xmlns="http://www.w3.org/2000/svg" xmlns:xlink="http://www.w3.org/1999/xlink" x="0px" y="0px"
	 viewBox="0 0 704.4 148.6" style="enable-background:new 0 0 704.4 148.6;" xml:space="preserve">
<style type="text/css">
	.st0{fill:#15181E;}
	.st1{fill:none;stroke:#1F232D;stroke-miterlimit:10;}
	.st2{fill:none;stroke:#20242E;stroke-width:0.9599;stroke-miterlimit:10;}
	.st3{fill:none;stroke:#20252F;stroke-width:0.9199;stroke-miterlimit:10;}
	.st4{fill:none;stroke:#212530;stroke-width:0.8798;stroke-miterlimit:10;}
	.st5{fill:none;stroke:#222632;stroke-width:0.8398;stroke-miterlimit:10;}
	.st6{fill:none;stroke:#222733;stroke-width:0.7997;stroke-miterlimit:10;}
	.st7{fill:none;stroke:#232834;stroke-width:0.7596;stroke-miterlimit:10;}
	.st8{fill:none;stroke:#232835;stroke-width:0.7196;stroke-miterlimit:10;}
	.st9{fill:none;stroke:#242936;stroke-width:0.6795;stroke-miterlimit:10;}
	.st10{fill:none;stroke:#252A37;stroke-width:0.6394;stroke-miterlimit:10;}
	.st11{fill:none;stroke:#252B38;stroke-width:0.5994;stroke-miterlimit:10;}
	.st12{fill:none;stroke:#262B39;stroke-width:0.5593;stroke-miterlimit:10;}
	.st13{fill:none;stroke:#272C3B;stroke-width:0.5193;stroke-miterlimit:10;}
	.st14{fill:none;stroke:#272D3C;stroke-width:0.4792;stroke-miterlimit:10;}
	.st15{fill:none;stroke:#282E3D;stroke-width:0.4391;stroke-miterlimit:10;}
	.st16{fill:none;stroke:#282E3E;stroke-width:0.3991;stroke-miterlimit:10;}
	.st17{fill:none;stroke:#292F3F;stroke-width:0.359;stroke-miterlimit:10;}
	.st18{opacity:0.54;fill:#EAEEF1;}
	.st19{opacity:0.8;}
	.st20{fill:#FFFFFF;}
	.st21{opacity:0.5;}
	.st22{fill:#FFFFFF;stroke:#000000;stroke-width:4;stroke-miterlimit:10;}
	.st23{fill:#2BB673;}
	.st24{fill:#F2D398;}
	.st25{fill:#F1F2F2;}
	.st26{fill:#31313B;}
	.st27{fill:#EAEEF1;}
	.st28{clip-path:url(#SVGID_2_);}
	.st29{fill:#1C9358;}
	.st30{clip-path:url(#SVGID_4_);}
	.st31{fill:#F9B25A;}
	.st32{fill:#31313C;}
	.st33{fill:#FD8065;}
	.st34{fill:#FFD26D;}
	.st35{clip-path:url(#SVGID_6_);}
	.st36{fill:#FFD578;}
	.st37{fill:#F8AD4C;}
	.st38{clip-path:url(#SVGID_8_);}
	.st39{fill:#FFB78F;}
	.st40{fill:#1E965A;}
	.st41{fill:#EABF7A;}
	.st42{fill:#B0614E;}
	.st43{fill:#D3B27D;}
	.st44{fill:#4AD18D;}
	.st45{fill:#666671;}
	.st46{clip-path:url(#SVGID_10_);}
	.st47{clip-path:url(#SVGID_12_);}
	.st48{clip-path:url(#SVGID_14_);}
	.st49{clip-path:url(#SVGID_16_);}
	.st50{clip-path:url(#SVGID_18_);}
	.st51{clip-path:url(#SVGID_20_);}
	.st52{clip-path:url(#SVGID_22_);}
	.st53{clip-path:url(#SVGID_24_);}
	.st54{fill:#61718E;}
	.st55{fill-rule:evenodd;clip-rule:evenodd;}
	.st56{fill-rule:evenodd;clip-rule:evenodd;fill:#FFFFFF;}
	.st57{fill:#A6BFE2;}
	.st58{fill-rule:evenodd;clip-rule:evenodd;fill:#2CDD7C;}
	.st59{fill-rule:evenodd;clip-rule:evenodd;fill:#14171F;}
	.st60{fill-rule:evenodd;clip-rule:evenodd;fill:#61718E;}
	.st61{fill:#14171F;}
	.st62{clip-path:url(#SVGID_26_);}
	.st63{clip-path:url(#SVGID_28_);}
	.st64{clip-path:url(#SVGID_30_);}
	.st65{clip-path:url(#SVGID_32_);}
	.st66{clip-path:url(#SVGID_34_);}
	.st67{clip-path:url(#SVGID_36_);}
	.st68{clip-path:url(#SVGID_38_);}
	.st69{clip-path:url(#SVGID_40_);}
	.st70{clip-path:url(#SVGID_42_);}
	.st71{clip-path:url(#SVGID_44_);}
	.st72{clip-path:url(#SVGID_46_);}
	.st73{clip-path:url(#SVGID_48_);}
	.st74{fill:#FFFFFF;stroke:#D4D7DD;stroke-miterlimit:10;}
	.st75{fill:none;stroke:#D3DDE0;stroke-miterlimit:10;}
	.st76{fill:none;stroke:#2BB673;stroke-miterlimit:10;}
	.st77{fill:#FF5A8D;}
	.st78{fill:#FFF5F0;}
	.st79{fill:#2CDD7C;}
	.st80{fill-rule:evenodd;clip-rule:evenodd;fill:#FFF5F0;}
	.st81{fill-rule:evenodd;clip-rule:evenodd;fill:#292F3F;}
	.st82{fill-rule:evenodd;clip-rule:evenodd;fill:#A6BFE2;}
	.st83{fill:#C7DAF2;}
	.st84{fill:none;stroke:#61718E;stroke-width:2;stroke-miterlimit:10;}
</style>
<g>
	<g>
		<path class="st0" d="M90.7,40.6v55.1c0,24.6-13.3,35.9-37.2,35.9c-12.6,0-24.7-3.1-32.5-9.1l7.6-13.8c5.7,4.6,14.9,7.5,23.4,7.5
			c13.5,0,19.4-6.2,19.4-18.1v-2.8c-5,5.5-12.3,8.2-20.9,8.2c-18.3,0-33.1-12.7-33.1-32c0-19.3,14.8-32,33.1-32
			c9.2,0,16.9,3.1,21.9,9.5v-8.5H90.7z M71.7,71.6c0-9.7-7.3-16.2-17.4-16.2c-10.1,0-17.5,6.5-17.5,16.2c0,9.7,7.4,16.2,17.5,16.2
			C64.5,87.9,71.7,81.3,71.7,71.6z"/>
		<path class="st0" d="M150.9,39.6v17.7c-1.6-0.1-2.8-0.2-4.3-0.2c-10.6,0-17.6,5.8-17.6,18.5v31.3h-19.2V40.6h18.3v8.7
			C132.8,42.9,140.7,39.6,150.9,39.6z"/>
		<path class="st0" d="M230.1,40.6v66.2h-18.3v-7.6c-4.8,5.8-11.8,8.6-20.7,8.6c-18.7,0-33.1-13.3-33.1-34.1s14.4-34.1,33.1-34.1
			c8.1,0,15,2.6,19.8,8v-7H230.1z M211.3,73.7c0-11.4-7.4-18.3-16.9-18.3c-9.6,0-17,6.9-17,18.3c0,11.4,7.4,18.3,17,18.3
			C203.9,92,211.3,85.1,211.3,73.7z"/>
		<path class="st0" d="M242.7,100.7l6.4-13.8c5.9,3.8,14.9,6.4,23,6.4c8.9,0,12.2-2.3,12.2-6c0-10.8-40,0.2-40-26.2
			c0-12.6,11.3-21.4,30.6-21.4c9.1,0,19.2,2.1,25.5,5.8L294,59.1c-6.5-3.7-13-4.9-19.1-4.9c-8.6,0-12.3,2.7-12.3,6.2
			c0,11.3,40,0.4,40,26.5c0,12.3-11.4,21-31.3,21C260.2,107.8,248.8,104.7,242.7,100.7z"/>
		<path class="st0" d="M309.3,100.7l6.4-13.8c5.9,3.8,14.9,6.4,23,6.4c8.9,0,12.2-2.3,12.2-6c0-10.8-40,0.2-40-26.2
			c0-12.6,11.3-21.4,30.6-21.4c9.1,0,19.2,2.1,25.5,5.8l-6.4,13.7c-6.5-3.7-13-4.9-19.1-4.9c-8.6,0-12.3,2.7-12.3,6.2
			c0,11.3,40,0.4,40,26.5c0,12.3-11.4,21-31.3,21C326.8,107.8,315.4,104.7,309.3,100.7z"/>
		<path class="st0" d="M423.4,39.6v17.7c-1.6-0.1-2.8-0.2-4.3-0.2c-10.6,0-17.6,5.8-17.6,18.5v31.3h-19.2V40.6h18.3v8.7
			C405.3,42.9,413.2,39.6,423.4,39.6z"/>
		<path class="st0" d="M430.5,73.7c0-19.9,15.4-34.1,36.4-34.1c21,0,36.3,14.2,36.3,34.1c0,19.9-15.3,34.1-36.3,34.1
			C445.9,107.8,430.5,93.6,430.5,73.7z M483.8,73.7c0-11.4-7.3-18.3-16.9-18.3c-9.6,0-17,6.9-17,18.3c0,11.4,7.4,18.3,17,18.3
			C476.6,92,483.8,85.1,483.8,73.7z"/>
		<path class="st0" d="M512.4,73.7c0-19.9,15.4-34.1,36.4-34.1s36.3,14.2,36.3,34.1c0,19.9-15.3,34.1-36.3,34.1
			S512.4,93.6,512.4,73.7z M565.7,73.7c0-11.4-7.3-18.3-16.9-18.3s-17,6.9-17,18.3c0,11.4,7.4,18.3,17,18.3S565.7,85.1,565.7,73.7z"
			/>
		<path class="st0" d="M635.3,90.1c-2.2,1.6-5,2.5-7.9,2.5c-5.2,0-8.1-3.1-8.1-8.7v-27V42.1V16.9l-19.2,9v16.1h-11.9v14.8h11.9V84
			c0,15.8,9,23.8,24.7,23.8c5.8,0,11.6-1.4,15.5-4.2L635.3,90.1z"/>
	</g>
	<g>
		<path class="st0" d="M660.5,21.2H654v20.2h-3.8V21.2h-6.4v-3.7h16.6V21.2z"/>
		<path class="st0" d="M686.9,16.9v24.5h-3.8V28.1l-8,12.9h0l-8-12.9v13.3h-3.8V16.9h0.3l11.5,17.4l11.5-17.4H686.9z"/>
	</g>
</g>
</svg>
